<svg xmlns="http://www.w3.org/2000/svg" viewBox="0 0 360 261.34"><title>BG_Art</title><g id="Layer_2" data-name="Layer 2"><g id="Layer_1-2" data-name="Layer 1"><g id="background-simple--inject-244"><path d="M360,27.49V179.26A118,118,0,0,1,350.61,191c-.74.81-1.48,1.6-2.24,2.39a123.52,123.52,0,0,1-15.89,13.84,131.8,131.8,0,0,1-12.76,8.27.27.27,0,0,1-.1.06l-.31.18a146.74,146.74,0,0,1-23.64,10.72,158.84,158.84,0,0,1-22.06,6c-1.29.26-2.58.5-3.88.72l-.21,0-.3.05h0l-.41.07c-2.28.39-4.56.72-6.85,1-4.66.58-10.66,1.36-17.76,2.19l-2.16.24-.12,0h-.09l-.18,0h-.08c-7.95.89-17.15,1.82-27.31,2.58l-.32,0c-9.4.7-19.62,1.27-30.41,1.54q-4.68.12-9.5.16c-7.69.06-15.64,0-23.75-.34h-.64c-10-.39-20.17-1.1-30.49-2.23H119l-3.64-.42q-6.25-.74-12.54-1.68h0l-.3-.06h0l-.23,0c-1.31-.2-2.63-.41-3.94-.63h0c-2.08-.34-4.18-.7-6.26-1.09h0l-.41-.07-.15,0-.35-.07q-6.54-1.22-13.05-2.7l-.53-.12h0c-3.14-.73-6.27-1.5-9.39-2.34l-.29-.07q-1.86-.5-3.72-1c-2.57-.71-5.14-1.47-7.69-2.27l-.94-.29c-1.44-.45-2.88-.92-4.31-1.4L46.74,222l-.41-.21-5.39-2.72-.17-.09-.13-.07,0,0-.08,0-9.81-5h0L25.1,211,12.76,204.8a88.18,88.18,0,0,1-8.58-6.61Q2,196.33,0,194.32V86.13c12.45-9.62,28-14.48,44.24-16.69l.87-.12c1.72-.22,3.45-.41,5.18-.58l.78-.07a217.77,217.77,0,0,1,23.75-.78c29.5.51,60.22,4,87.52-7.22,20.28-8.29,36.49-23.86,54.71-36C240,9.38,267.17-.63,294.78,0,319,.62,343.39,10.13,360,27.49Z" fill="#f5d7c4"/></g><path d="M40.11,63.25c0,.24-1.8.45-4,.45s-4-.21-4-.45,1.8-.45,4-.45S40.11,63,40.11,63.25Z" fill="#263238"/><path d="M44.39,52.28c.25,0,.45,1.83.45,4.1s-.2,4.09-.45,4.09S44,58.63,44,56.38,44.15,52.28,44.39,52.28Z" fill="#263238"/><path d="M49,63c0-.25,1.8-.45,4-.45s4,.2,4,.45-1.8.44-4,.44S49,63.23,49,63Z" fill="#263238"/><path d="M44.67,74c-.24,0-.44-1.83-.44-4.09s.2-4.09.44-4.09.45,1.83.45,4.09S44.92,74,44.67,74Z" fill="#263238"/><path d="M51.19,69.26c-.19.15-1-.48-1.78-1.44s-1.28-1.84-1.09-2,1,.48,1.77,1.43S51.38,69.09,51.19,69.26Z" fill="#263238"/><path d="M50.81,56.81c.18.17-.35,1-1.17,1.82S48,60,47.84,59.82s.35-1,1.17-1.82S50.64,56.64,50.81,56.81Z" fill="#263238"/><path d="M41.57,60c-.16.19-.92-.19-1.7-.84s-1.29-1.32-1.14-1.52.92.18,1.71.84S41.71,59.79,41.57,60Z" fill="#263238"/><path d="M41.21,65.46c.18.17-.28,1-1,1.79s-1.49,1.32-1.67,1.17.27-1,1-1.78S41.05,65.29,41.21,65.46Z" fill="#263238"/><path d="M267.59,42A10.61,10.61,0,0,1,263,42a10.61,10.61,0,0,1,4.58,0Z" fill="#263238"/><path d="M270,35.81a5.5,5.5,0,0,1,.25,2.31,5.63,5.63,0,0,1-.25,2.33,5.6,5.6,0,0,1-.25-2.33A5.5,5.5,0,0,1,270,35.81Z" fill="#263238"/><path d="M272.61,41.88a5.35,5.35,0,0,1,2.29-.26,5.28,5.28,0,0,1,2.28.26,5.38,5.38,0,0,1-2.28.25A5.44,5.44,0,0,1,272.61,41.88Z" fill="#263238"/><path d="M270.18,48.11a5.6,5.6,0,0,1-.25-2.33,5.57,5.57,0,0,1,.25-2.32,5.57,5.57,0,0,1,.25,2.32A5.6,5.6,0,0,1,270.18,48.11Z" fill="#263238"/><path d="M273.88,45.42c-.11.09-.56-.27-1-.81s-.72-1-.62-1.14.56.28,1,.82S274,45.35,273.88,45.42Z" fill="#263238"/><path d="M273.66,38.37c.1.1-.2.57-.66,1s-.93.76-1,.66.2-.56.67-1S273.56,38.27,273.66,38.37Z" fill="#263238"/><path d="M268.42,40.17c-.09.11-.52-.1-1-.47s-.73-.76-.66-.86.52.1,1,.47S268.5,40.07,268.42,40.17Z" fill="#263238"/><path d="M268.21,43.29c.1.09-.16.54-.58,1s-.85.76-.95.66.16-.55.58-1S268.13,43.19,268.21,43.29Z" fill="#263238"/><path d="M163.62,94.11a8.31,8.31,0,0,1-3.51,0A7.71,7.71,0,0,1,163.62,94.11Z" fill="#263238"/><path d="M165.52,89.33a8.54,8.54,0,0,1,0,3.56A7.92,7.92,0,0,1,165.52,89.33Z" fill="#263238"/><path d="M167.46,94A8,8,0,0,1,171,94,8,8,0,0,1,167.46,94Z" fill="#263238"/><path d="M165.6,98.76a8.54,8.54,0,0,1,0-3.56A8.22,8.22,0,0,1,165.6,98.76Z" fill="#263238"/><path d="M168.44,96.71c-.08.07-.43-.21-.77-.62s-.56-.8-.48-.87.43.21.78.62S168.52,96.65,168.44,96.71Z" fill="#263238"/><path d="M168.28,91.3c.07.08-.16.43-.51.79s-.72.59-.79.52.15-.43.51-.79S168.2,91.23,168.28,91.3Z" fill="#263238"/><path d="M164.25,92.68c-.06.08-.4-.08-.74-.36s-.56-.58-.49-.66.4.08.74.36S164.32,92.6,164.25,92.68Z" fill="#263238"/><path d="M164.09,95.08c.08.07-.12.42-.44.77s-.66.59-.73.52.12-.42.44-.77S164,95,164.09,95.08Z" fill="#263238"/><path d="M256.83,101.53a5.44,5.44,0,0,1-2.29.25c-1.27,0-2.3-.08-2.3-.25s1-.26,2.29-.26A5.41,5.41,0,0,1,256.83,101.53Z" fill="#e0e0e0"/><path d="M259.26,95.3a5.57,5.57,0,0,1,.25,2.32,5.53,5.53,0,0,1-.25,2.32,5.43,5.43,0,0,1-.26-2.32A5.47,5.47,0,0,1,259.26,95.3Z" fill="#e0e0e0"/><path d="M261.84,101.37a5.67,5.67,0,0,1,2.3-.25,5.57,5.57,0,0,1,2.28.25,5.28,5.28,0,0,1-2.28.26A5.38,5.38,0,0,1,261.84,101.37Z" fill="#e0e0e0"/><path d="M259.41,107.6a5.77,5.77,0,0,1-.25-2.32,5.77,5.77,0,0,1,.25-2.32,5.47,5.47,0,0,1,.26,2.32A5.83,5.83,0,0,1,259.41,107.6Z" fill="#e0e0e0"/><path d="M263.12,104.93c-.12.09-.57-.27-1-.81s-.72-1.05-.61-1.14.55.28,1,.81S263.22,104.84,263.12,104.93Z" fill="#e0e0e0"/><path d="M262.9,97.87c.1.1-.2.56-.66,1s-.93.77-1,.66.2-.56.66-1S262.8,97.77,262.9,97.87Z" fill="#e0e0e0"/><path d="M257.65,99.67c-.09.11-.52-.1-1-.47s-.74-.76-.66-.87.52.11,1,.48S257.74,99.56,257.65,99.67Z" fill="#e0e0e0"/><path d="M257.45,102.78c.1.1-.16.55-.58,1s-.85.77-1,.66.16-.55.59-1S257.34,102.69,257.45,102.78Z" fill="#e0e0e0"/><path d="M136.17,42.43l.3.72a5.1,5.1,0,0,0,2.77,2.74l.78.32-.75.29a5.06,5.06,0,0,0-2.78,2.8l-.22.52-.31-.66a5,5,0,0,0-2.83-2.56l-.66-.25.88-.43a5.07,5.07,0,0,0,2.47-2.65Z" fill="#e0e0e0"/><path d="M19.9,96l.2.47a3.29,3.29,0,0,0,1.84,1.82l.51.21-.49.2a3.43,3.43,0,0,0-1.86,1.86l-.14.35-.21-.43a3.37,3.37,0,0,0-1.87-1.71l-.45-.16.59-.28a3.45,3.45,0,0,0,1.63-1.74Z" fill="#e0e0e0"/><path d="M312.89,49.82l.19.48a3.38,3.38,0,0,0,1.84,1.82l.52.21-.49.21a3.32,3.32,0,0,0-1.86,1.85l-.14.35-.21-.44a3.34,3.34,0,0,0-1.88-1.7l-.45-.16.59-.29a3.3,3.3,0,0,0,1.64-1.73Z" fill="#e0e0e0"/><path d="M313.77,69.92l.3.72a5.08,5.08,0,0,0,2.76,2.74l.79.31-.75.31a5.11,5.11,0,0,0-2.8,2.79l-.2.53-.32-.67a5,5,0,0,0-2.83-2.56l-.66-.24.89-.43a5.05,5.05,0,0,0,2.46-2.61Z" fill="#263238"/><path d="M191.44,38.1l.14.33a2.37,2.37,0,0,0,1.33,1.29l.36.15-.35.14a2.39,2.39,0,0,0-1.33,1.32l-.09.25-.16-.31a2.33,2.33,0,0,0-1.32-1.2L189.7,40l.42-.21a2.42,2.42,0,0,0,1.16-1.22Z" fill="#263238"/><path d="M99.15,93l.18.43A3.05,3.05,0,0,0,101,95.07l.47.19-.45.18a3,3,0,0,0-1.68,1.68l-.13.32L99,97.05a3.06,3.06,0,0,0-1.71-1.55l-.41-.15.54-.26a3.12,3.12,0,0,0,1.49-1.57Z" fill="#263238"/><g id="character-1--inject-244"><path d="M93.92,101.82c-.12,2.17-2.94,5.06-2.07,7.05,1.61,3.66.67,8-1.41,11.49s-5.19,6.08-8.26,8.63a69.07,69.07,0,0,0-1.38-15.91c-.34-1.64-.89-3.46-2.39-4.21-1.94-1-4.4.43-6.38-.42s-2.54-3.81-4.33-5.27c-1.61-1.32-4-1.18-6-.52s-3.8,1.78-5.84,2.23-4.48,0-5.61-1.71c-.68-1.08-.2-.41-.86-1.52,0,0-4,.14-5.33-4.48,0,0-1.87-5.13,2.26-7.39,0,0,.94-9.27,10.26-5.1,2.7,1.2,5.85-2.66,8.47-1.35,2.17,1.1,2.82,4.13,5,5.23,2.5,1.28,5.41-.62,8.21-.73A6.75,6.75,0,0,1,85,94.6s.44-1.86,3.48-1A7.9,7.9,0,0,1,93.92,101.82Z" fill="#263238"/><path d="M90,116.74a6.5,6.5,0,0,0-.56-3c-.4-.79-1.86-2.59-3.47-2.71l.24-9.55a3.81,3.81,0,0,0-3.38-3.85l-18.72-2a11.4,11.4,0,0,0-12.53,10.14c0,.16,0,.32,0,.48-.45,7.2-.72,16,.13,21.37,1.71,10.81,10,12.16,10,12.16l-.2,7.55c-.32,8,5.7,12.87,11.9,12.87s11.94-5.36,11.75-13.31l.61-24.33a4.3,4.3,0,0,0,2.74-1.35A6.8,6.8,0,0,0,90,116.74Z" fill="#ffbe9d"/><path d="M55.65,112.09a1.38,1.38,0,0,0,1.35,1.4,1.33,1.33,0,1,0,.12-2.65h0A1.35,1.35,0,0,0,55.65,112.09Z" fill="#263238"/><path d="M53.38,110.81c.17.19,1.21-.59,2.7-.59s2.58.75,2.74.57-.1-.41-.57-.75a3.74,3.74,0,0,0-2.2-.68,3.59,3.59,0,0,0-2.15.68C53.44,110.41,53.26,110.73,53.38,110.81Z" fill="#263238"/><path d="M70,112.37a1.38,1.38,0,0,0,1.35,1.4,1.36,1.36,0,0,0,1.43-1.25,1.4,1.4,0,0,0-1.36-1.4A1.35,1.35,0,0,0,70,112.37Z" fill="#263238"/><path d="M68,111.09c.17.18,1.22-.59,2.7-.59s2.59.75,2.75.56-.1-.4-.58-.75a3.8,3.8,0,0,0-2.19-.67,3.68,3.68,0,0,0-2.16.67C68.09,110.69,67.93,111,68,111.09Z" fill="#263238"/><path d="M62.61,122.14a10.52,10.52,0,0,0-2.42-.44c-.38,0-.74-.11-.81-.37a2.12,2.12,0,0,1,.26-1.13l1.12-2.89c1.57-4.12,2.71-7.52,2.53-7.58s-1.57,3.23-3.13,7.36c-.38,1-.73,2-1.07,2.91a2.29,2.29,0,0,0-.21,1.5,1,1,0,0,0,.63.55,3.1,3.1,0,0,0,.68.1A9.34,9.34,0,0,0,62.61,122.14Z" fill="#263238"/><path d="M61.58,139.77A27.43,27.43,0,0,0,76,135.91S72.3,144,61.49,143Z" fill="#eb996e"/><path d="M67.35,108.48c.14.41,1.63.22,3.37.43s3.17.67,3.38.32c.1-.17-.14-.55-.71-.94a5.89,5.89,0,0,0-5.16-.58C67.61,108,67.28,108.29,67.35,108.48Z" fill="#263238"/><path d="M53.13,107.35c.27.34,1.29,0,2.52,0s2.28.22,2.53-.13c.1-.18-.07-.51-.52-.83a3.64,3.64,0,0,0-4,.13C53.16,106.83,53,107.18,53.13,107.35Z" fill="#263238"/><path d="M62.94,130.57s.1-.21.4-.4a2.7,2.7,0,0,1,1.36-.37,2.77,2.77,0,0,1,1.35.35c.3.19.44.37.41.4a6.55,6.55,0,0,0-1.74-.39A6.4,6.4,0,0,0,62.94,130.57Z" fill="#eb996e"/><path d="M84.94,119.61a8,8,0,0,0,1-.5,2.76,2.76,0,0,0,1.25-2.21,2.82,2.82,0,0,0-1.12-2.31,2.41,2.41,0,0,0-1-.4s.5-.22,1.17.19a2.92,2.92,0,0,1,1.35,2.52,2.67,2.67,0,0,1-.5,1.54,2.85,2.85,0,0,1-1,.89A1.62,1.62,0,0,1,84.94,119.61Z" fill="#eb996e"/><path d="M49.43,93c-1.74,4.67,2.4,8,5.63,8.79,4.51,1.05,9.31-1.8,12.4-.59,2.3.91,4.48,2.7,6.93,2.33,1.19-.17,2.36-.86,3.52-.54,1.48.4,2.08,2.2,2,3.73,0,1.89-.67,3.77-.43,5.65s1.91,3.82,3.74,3.32a4.51,4.51,0,0,0,3.07-4c.21-2.61-.27-5.7-.14-8.31.12-2.3.12-4.82-1.35-6.6s-4-2.26-6.25-2.57A173.47,173.47,0,0,0,49.4,92.65Z" fill="#263238"/><path d="M43.75,94a1.64,1.64,0,0,1-.1-.49,3,3,0,0,1,.29-1.4,3.07,3.07,0,0,1,1.63-1.54A2.72,2.72,0,0,1,47,90.44c.51,0,1,.18,1.55.21a3.05,3.05,0,0,0,1.6-.35,7.79,7.79,0,0,0,1.48-1.08c.48-.42,1-.88,1.54-1.29a5.07,5.07,0,0,1,2-.87,7.37,7.37,0,0,1,4.52.77,21.74,21.74,0,0,1,4,2.86,15.73,15.73,0,0,0,4,2.7,4.55,4.55,0,0,0,2.19.34,6.55,6.55,0,0,0,2-.67,18.27,18.27,0,0,1,3.76-1.73,7.4,7.4,0,0,1,3.62-.12,5.54,5.54,0,0,1,2.63,1.41,5.43,5.43,0,0,1,1.25,1.88,4.19,4.19,0,0,1,.27,1.4,2.29,2.29,0,0,1,0,.37v.12a5,5,0,0,0-.36-1.83,5.38,5.38,0,0,0-1.26-1.8,5.43,5.43,0,0,0-2.54-1.31,7.36,7.36,0,0,0-3.49.15,19,19,0,0,0-3.7,1.75A6.32,6.32,0,0,1,69.9,94a5,5,0,0,1-2.36-.34,16.31,16.31,0,0,1-4.09-2.75,21.32,21.32,0,0,0-3.93-2.81,7,7,0,0,0-4.3-.77,7,7,0,0,0-3.38,2.07,8,8,0,0,1-1.55,1.09,3.39,3.39,0,0,1-1.74.36c-.56,0-1.07-.18-1.55-.24a2.8,2.8,0,0,0-1.35.12,3.06,3.06,0,0,0-1.58,1.43,3,3,0,0,0-.34,1.35C43.72,93.86,43.8,94,43.75,94Z" fill="#455a64"/><path d="M49,101.54a.76.76,0,0,1-.47,0,1.63,1.63,0,0,1-1.1-.78,3.24,3.24,0,0,1-.25-2.12A6.22,6.22,0,0,1,48.25,96,5.86,5.86,0,0,1,51,94a6.08,6.08,0,0,1,3.93-.1A14,14,0,0,1,58.74,96a13.11,13.11,0,0,0,4,2.23A7.47,7.47,0,0,0,67.18,98a21.47,21.47,0,0,0,3.87-1.85,36,36,0,0,1,3.48-1.83,9.81,9.81,0,0,1,3.32-.86A6.19,6.19,0,0,1,82.48,95a4,4,0,0,1,.8,1.09,1.72,1.72,0,0,1,.16.45,4.81,4.81,0,0,0-1-1.44,6.16,6.16,0,0,0-4.52-1.41,9.58,9.58,0,0,0-3.23.88,34.32,34.32,0,0,0-3.43,1.85,21.17,21.17,0,0,1-3.93,1.88,7.84,7.84,0,0,1-4.67.26,13.73,13.73,0,0,1-4-2.28,13.54,13.54,0,0,0-3.68-2.13,5.87,5.87,0,0,0-3.75.06,5.74,5.74,0,0,0-2.65,2,5.94,5.94,0,0,0-1.11,2.5,3.08,3.08,0,0,0,.18,2,1.6,1.6,0,0,0,1,.8A2.18,2.18,0,0,0,49,101.54Z" fill="#455a64"/><path d="M90.35,119.55a9.09,9.09,0,0,0,.61-.94,6.53,6.53,0,0,0,.8-2.9,6,6,0,0,0-.26-2,7.51,7.51,0,0,0-1.08-2.13c-.47-.67-1-1.41-1.52-2.23a5.11,5.11,0,0,1-.89-2.81,7,7,0,0,1,.91-2.8,5.87,5.87,0,0,0,.75-2.49,4.26,4.26,0,0,0-2-3.71,4.52,4.52,0,0,0-2.9-.57,9.47,9.47,0,0,0-1.08.27,1,1,0,0,1,.25-.15,3.8,3.8,0,0,1,.81-.25,4.36,4.36,0,0,1,3,.49,4.49,4.49,0,0,1,2.2,3.93,6.4,6.4,0,0,1-.77,2.63,6.58,6.58,0,0,0-.87,2.66,4.93,4.93,0,0,0,.83,2.63c.48.78,1,1.5,1.5,2.22a8.07,8.07,0,0,1,1.1,2.22,6.26,6.26,0,0,1,.22,2.15,6.33,6.33,0,0,1-.91,2.92,4,4,0,0,1-.5.67C90.43,119.49,90.36,119.56,90.35,119.55Z" fill="#455a64"/><path d="M62.05,111.67a16.12,16.12,0,0,0-.29-1.69,6.85,6.85,0,0,0-8.35-4.92c-.21,0-.42.12-.63.19a7,7,0,0,0-3.14,2.37,6.77,6.77,0,0,0,0,8,6.15,6.15,0,0,0,1.43,1.45,6.29,6.29,0,0,0,1.71.92,6.81,6.81,0,0,0,6.45-.94,6.91,6.91,0,0,0,2.53-3.75,15.94,15.94,0,0,0,.29-1.68,5.46,5.46,0,0,1-.15,1.71,6.93,6.93,0,0,1-2.56,4,7,7,0,0,1-6.7,1.06,6.36,6.36,0,0,1-1.8-1,6.76,6.76,0,0,1-1.51-1.51,7.05,7.05,0,0,1,0-8.42,7.08,7.08,0,0,1,7-2.76A7,7,0,0,1,61.86,110,5.36,5.36,0,0,1,62.05,111.67Z" fill="#263238"/><path d="M77.89,111.67A13.88,13.88,0,0,0,77.6,110a6.84,6.84,0,0,0-8.34-4.92c-.21,0-.42.12-.63.19a6.92,6.92,0,0,0-3.15,2.37,6.77,6.77,0,0,0,0,8,6.35,6.35,0,0,0,1.43,1.45,6.47,6.47,0,0,0,1.72.92,6.85,6.85,0,0,0,8.79-4.11c.06-.18.12-.36.17-.55a13.53,13.53,0,0,0,.28-1.67,5,5,0,0,1-.15,1.71,6.85,6.85,0,0,1-2.5,3.93,7,7,0,0,1-6.7,1.06,6.36,6.36,0,0,1-1.8-1,7,7,0,0,1-1.52-1.51,7.11,7.11,0,0,1,0-8.42A7.22,7.22,0,0,1,68.52,105a7,7,0,0,1,9.22,5A5.33,5.33,0,0,1,77.89,111.67Z" fill="#263238"/><path d="M64.37,110.5h0v.07h0v-.12h0v.13a4.29,4.29,0,0,1-1.13.11c-.68,0-1.24-.08-1.24-.17s.55-.18,1.24-.18a4.29,4.29,0,0,1,1.13.11v.13h0v-.12h0v.07h0Z" fill="#263238"/><path d="M86.23,112A24.13,24.13,0,0,1,82,111.9a24.91,24.91,0,0,1-4.23-.48,27.41,27.41,0,0,1,4.25.13A27.26,27.26,0,0,1,86.23,112Z" fill="#263238"/><path d="M68.8,121.77a1.77,1.77,0,0,1,0,1.09A3.71,3.71,0,0,1,65,126a1.72,1.72,0,0,1-1.06-.26s.42.06,1.06,0a3.82,3.82,0,0,0,3.58-2.92A8.27,8.27,0,0,0,68.8,121.77Z" fill="#263238"/><path d="M42,170.28a.81.81,0,0,1,0,.22v.63c0,.58,0,1.41,0,2.45,0,2.14,0,5.2,0,9,0,7.58-.23,18.06-.82,29.61s-1.19,22-1.61,29.59c-.19,3.77-.34,6.83-.45,9q-.08,1.56-.12,2.43c0,.27,0,.48,0,.64a.74.74,0,0,1,0,.21.74.74,0,0,1,0-.21v-.64c0-.58,0-1.4.06-2.44.06-2.12.17-5.19.34-9,.31-7.58.93-18,1.5-29.59s.89-22,.93-29.61c0-3.77.05-6.83.06-9,0-1,0-1.87,0-2.45v-.63A1.43,1.43,0,0,1,42,170.28Z" fill="#263238"/><path d="M107.32,158.64c-3.63-4.19-10.73-4.81-13.88-2.53a13.7,13.7,0,0,0-5.22,10,24.86,24.86,0,0,0,2.15,11.34c2.37,5.76,5.88,10.42,11.11,16.35L115,211.54,89,237l10.81,17,22.15-17.84,18.31-19.4Z" fill="#ff7c5c"/><path d="M13.13,213.27a4.11,4.11,0,0,1,1.4-.67,9.86,9.86,0,0,1,3.73-.51,10.06,10.06,0,0,1,3.65.91,4.12,4.12,0,0,1,1.36.82c0,.05-.55-.25-1.42-.59a11.33,11.33,0,0,0-7.21-.4A15.15,15.15,0,0,1,13.13,213.27Z" fill="#263238"/><path d="M141.16,207.51l-.08-.23h0L141,207c-1.32-4-4-8.89-7.75-14.53a.08.08,0,0,0,0,0c-1.48-2.24-3.11-4.6-4.87-7.05-3.27-4.54-7-9.41-11-14.53l-3-3.86-3.5-4.4c-.52-.69-1-1.34-1.57-2a31.28,31.28,0,0,0-2.22-2.33h0c-.38-.36-.74-.69-1.11-1l-.07,0h0c-7.5-6.37-14.78-5.73-18.87-5.84v-5.29a8.14,8.14,0,0,0-1.9.25c-3.36.81-7.24,3.46-9.42,5.44l-2.57,3.53a13.3,13.3,0,0,0-3.23-5.12,13.14,13.14,0,0,0-5.18-3.13,27.69,27.69,0,0,0-3.23-.8l-1.08-.17v4.73c-12.21.34-18.75,3.68-26.91,13.13-.42.49-1.25,1.32-2.2,2.26L7.09,194.63c-1,1.11-2,2.3-2.91,3.56A33,33,0,0,0,0,205.58V220a21.79,21.79,0,0,0,3.25,5.59,46,46,0,0,0,10.56,9.15l5.56,3.6,19.76,12.81h0l0,0,0,0,0,.61,0,.61,0,1.26V254H99.73l0,0,.09-.07.14-.1.21-.16,1.34-1,.17-.14.15-.11c.86-.65,2-1.48,3.22-2.47,2.68-2.07,6.16-4.82,9.9-7.91,1.36-1.12,2.76-2.29,4.16-3.5l2.48-2.13,0,0,.33-.29,0,0c4.2-3.69,8.34-7.56,11.74-11.19l.17-.18.17-.18c1.09-1.17,2.09-2.32,3-3.43h0l.25-.3h0c.07-.1.15-.19.22-.28a35.48,35.48,0,0,0,2.53-3.59v0a0,0,0,0,0,0,0,.36.36,0,0,1,.07-.1,11,11,0,0,0,1.65-4.3A13.05,13.05,0,0,0,141.16,207.51Zm-28.42,6.3-.1.1L98.46,228.08l0-.32v0L98,218.27l2.56-25.52h0l0-.27,1.17,1.35.08.1c2,2.3,4.34,5.15,6.52,7.9l.31.39c.76,1,1.5,1.92,2.18,2.82a1.13,1.13,0,0,1,.1.13h0c2.36,3.11,4.08,5.63,4.08,6.37h0l0,0h0l-.07.06-.1.12ZM34,222.33l-2.53-1.88h0l-8.95-6.67.2-.21.12-.12L25.1,211l8.65-9,7.64-7.9.21-.22.07-.07-.14,3.19c0,.1,0,.2,0,.31L40.89,212l-.3,6.93-.22,5,0,.68-.1,2.43,0,0,0,0L34,222.34Z" fill="#ff7c5c"/><path d="M87,151.45a5.73,5.73,0,0,1-.46.8c-.33.5-.79,1.22-1.41,2.1a47.17,47.17,0,0,1-5.32,6.4c-.57.58-1.15,1.13-1.72,1.65l-.28.27v-.39a8.65,8.65,0,0,0-2.49-5.92,3.69,3.69,0,0,0-1.55-1.09.92.92,0,0,0-.67.11.69.69,0,0,1,.67-.24,3.51,3.51,0,0,1,1.68,1.06,8.37,8.37,0,0,1,1.79,2.42,8.72,8.72,0,0,1,.89,3.65l-.28-.13c.55-.52,1.13-1.06,1.7-1.64a57.62,57.62,0,0,0,5.37-6.3l1.49-2A4.19,4.19,0,0,1,87,151.45Z" fill="#263238"/><path d="M60.35,150.89a3.54,3.54,0,0,1,.53.63l1.35,1.77c1.13,1.52,2.66,3.62,4.33,6l1.1,1.53-.31.05a15,15,0,0,1,1.35-3.13,5.41,5.41,0,0,1,2-1.93,3.56,3.56,0,0,1,1.75-.48,1.38,1.38,0,0,1,.67.09h-.67a3.86,3.86,0,0,0-1.65.56A5.37,5.37,0,0,0,69,157.83a15.1,15.1,0,0,0-1.29,3.08l-.11.32-.2-.27-1.09-1.53c-1.68-2.34-3.18-4.47-4.25-6l-1.25-1.84A3.62,3.62,0,0,1,60.35,150.89Z" fill="#263238"/><g opacity="0.1"><path d="M73.06,155.38a10.38,10.38,0,0,1,2.64,8.29c-.12,1-.24,2.31.68,2.67a2,2,0,0,0,1.87-.62,36.79,36.79,0,0,0,9.53-11.62,2.2,2.2,0,0,0,.35-1.19.81.81,0,0,0-.79-.79,1.17,1.17,0,0,0-.67.5c-2.82,3.24-5.92,6.61-8.74,9.85a7.14,7.14,0,0,0-1.56-5c-1.11-1.36-2.33-2.76-3.29-2.1Z"/></g><path d="M99,252.89a1.94,1.94,0,0,1-.21-.29c-.15-.21-.33-.5-.57-.85l-2.07-3.22L89,237.3l-.07-.11.09-.09,6.34-6.32,13.8-13.66,4.2-4.1,1.16-1.11a5,5,0,0,1,.42-.37,3.7,3.7,0,0,1-.37.42c-.28.29-.68.68-1.11,1.16l-4.15,4.21L95.63,231.05c-2.23,2.23-4.38,4.35-6.35,6.31v-.21c2.83,4.57,5.26,8.49,7,11.3.84,1.35,1.52,2.48,2,3.27.21.36.38.68.52.88A1.49,1.49,0,0,1,99,252.89Z" fill="#263238"/><path d="M91.54,158.3l-.1.13-.31.36A18.5,18.5,0,0,0,90,160.23a14.44,14.44,0,0,0-2.59,6.17,17.8,17.8,0,0,0,1.51,9.75,23.6,23.6,0,0,0,3,5.09c1.28,1.62,2.63,3.25,4,5,5.45,6.88,10.14,13.27,13.58,17.87l4.06,5.45,1.1,1.49.27.39.09.14-.11-.12-.31-.37-1.14-1.48c-1-1.26-2.42-3.1-4.16-5.41-3.49-4.55-8.21-10.93-13.65-17.79-1.35-1.72-2.7-3.38-4-5a23.87,23.87,0,0,1-3-5.18,17.88,17.88,0,0,1-1.45-9.92,14.35,14.35,0,0,1,4-7.58l.34-.34C91.49,158.33,91.53,158.29,91.54,158.3Z" fill="#263238"/><path d="M114.33,167s-.37.17-1,.5a10.47,10.47,0,0,0-2.4,1.85,20.22,20.22,0,0,0-2.7,3.61,54.79,54.79,0,0,1-3,4.73,11.47,11.47,0,0,1-8.78,4.67,10.3,10.3,0,0,1-3.08-.29,7.32,7.32,0,0,1-.8-.23,1.11,1.11,0,0,1-.27-.12,14.35,14.35,0,0,0,4.13.39,11.48,11.48,0,0,0,8.5-4.64c1.19-1.55,2.1-3.22,3-4.66a19.25,19.25,0,0,1,2.8-3.62,9.32,9.32,0,0,1,2.52-1.79,6.67,6.67,0,0,1,.78-.31A1.58,1.58,0,0,1,114.33,167Z" fill="#fafafa"/><path d="M98.21,226.44h-.16l-.45-.1a6.83,6.83,0,0,0-.75-.14,8.77,8.77,0,0,0-1-.11,19,19,0,0,0-6.52.83A32.87,32.87,0,0,0,85,228.49c-1.5.68-3.05,1.5-4.73,2.29a31.29,31.29,0,0,1-5.46,2.07,16.78,16.78,0,0,1-3.07.49,13.77,13.77,0,0,1-3.2-.23,18.89,18.89,0,0,1-5.8-2.4c-1.74-1-3.3-2.22-4.8-3.31-3-2.22-5.78-4.06-8.46-4.86a13.62,13.62,0,0,0-3.69-.6,10.24,10.24,0,0,0-2.81.33,11.16,11.16,0,0,0-2.24.9l.13-.1.4-.24a7.68,7.68,0,0,1,1.68-.68,10.46,10.46,0,0,1,2.84-.39,13.69,13.69,0,0,1,3.76.56c2.74.78,5.61,2.63,8.58,4.83,1.5,1.1,3.06,2.26,4.79,3.29a18.39,18.39,0,0,0,5.69,2.34,13,13,0,0,0,3.11.23,16,16,0,0,0,3-.47,31.76,31.76,0,0,0,5.41-2c1.67-.78,3.23-1.61,4.73-2.26a31,31,0,0,1,4.34-1.54A18.59,18.59,0,0,1,95.8,226,9,9,0,0,1,98.21,226.44Z" fill="#fafafa"/><path d="M31.41,220.44a.81.81,0,0,1,.06.24,5.05,5.05,0,0,1,.08.68,10,10,0,0,1-.11,2.5,8.33,8.33,0,0,1-1.4,3.46,10.67,10.67,0,0,1-3.47,3c-1.35.83-2.75,1.53-3.87,2.34a10.38,10.38,0,0,0-2.6,2.52,4.11,4.11,0,0,0-.78,2.27c0,.58.09.9.05.9a.85.85,0,0,1-.09-.22,3.85,3.85,0,0,1-.1-.68,4.21,4.21,0,0,1,.67-2.41,10.51,10.51,0,0,1,2.63-2.65c1.14-.84,2.51-1.55,3.87-2.37a10.7,10.7,0,0,0,3.38-2.86,8.31,8.31,0,0,0,1.43-3.31,11.91,11.91,0,0,0,.21-2.46C31.37,221.05,31.38,220.75,31.41,220.44Z" fill="#fafafa"/><path d="M133.39,192.47a15.65,15.65,0,0,0-4,1.26,12,12,0,0,0-3.61,2.7,11.42,11.42,0,0,0-1.52,2.19c-.45.82-.75,1.75-1.19,2.66a6.51,6.51,0,0,1-1.78,2.38,8,8,0,0,1-2.42,1.35,11.92,11.92,0,0,1-4.59.57,29.45,29.45,0,0,1-3.1-.37,6.85,6.85,0,0,1-1.11-.24,7.09,7.09,0,0,1,1.13.11c.73.07,1.78.21,3.08.25a12.17,12.17,0,0,0,4.48-.63,6.66,6.66,0,0,0,4-3.56c.43-.9.74-1.83,1.2-2.67a11.15,11.15,0,0,1,1.62-2.23,11.79,11.79,0,0,1,3.74-2.74,11,11,0,0,1,3-.93,8,8,0,0,1,.84-.1Z" fill="#fafafa"/><path d="M99.81,198.18l-.16,0-.46.11c-.4.08-1,.19-1.79.31a41.25,41.25,0,0,1-6.67.48A31.15,31.15,0,0,1,81,197.46,32.51,32.51,0,0,1,75.66,195a38.28,38.28,0,0,0-5.61-2.74A11.54,11.54,0,0,0,64,191.7a20,20,0,0,0-5.41,2c-3.27,1.74-6,3.67-8.52,5a20.88,20.88,0,0,1-6.23,2.43,9.11,9.11,0,0,1-1.8.2h-.48l.47-.06a9.67,9.67,0,0,0,1.78-.26,21.47,21.47,0,0,0,6.13-2.51c2.46-1.35,5.2-3.32,8.5-5.09a20.13,20.13,0,0,1,5.52-2A13.05,13.05,0,0,1,67,191.2a13.49,13.49,0,0,1,3.14.71,38.5,38.5,0,0,1,5.66,2.77,34.16,34.16,0,0,0,5.26,2.49,31.1,31.1,0,0,0,9.65,1.71,43.54,43.54,0,0,0,6.65-.36c.78-.1,1.38-.19,1.79-.26l.47-.06Z" fill="#fafafa"/><path d="M33.75,202.08a2.16,2.16,0,0,0,0-1,3,3,0,0,0-2.12-1.74c-.59-.17-1.26-.27-2-.43a4.85,4.85,0,0,1-2.17-1,5.62,5.62,0,0,1-1.5-2.16,18.11,18.11,0,0,1-.78-2.7,14.16,14.16,0,0,0-.77-2.63,9.83,9.83,0,0,0-4.53-4.93,10,10,0,0,0-2.7-1c-.68-.14-1.06-.17-1.06-.2a.66.66,0,0,1,.28,0,7,7,0,0,1,.8.07,9.13,9.13,0,0,1,2.83.88A9.56,9.56,0,0,1,23.4,188a10.1,10.1,0,0,1,1.35,2.25,15.05,15.05,0,0,1,.8,2.71,17.48,17.48,0,0,0,.75,2.63,5.42,5.42,0,0,0,1.39,2,4.65,4.65,0,0,0,2,1c.67.18,1.35.29,2,.49A3.09,3.09,0,0,1,33.88,201a1.63,1.63,0,0,1,0,.82A.71.71,0,0,1,33.75,202.08Z" fill="#fafafa"/><path d="M87.12,167.42a9.23,9.23,0,0,0-2-.8,6.14,6.14,0,0,0-2.49,0,12.58,12.58,0,0,0-3.15,1.06c-1.13.51-2.32,1.17-3.62,1.85a20.49,20.49,0,0,1-4.35,1.81,12.61,12.61,0,0,1-5.19.16,19.88,19.88,0,0,1-5.3-1.75c-3.45-1.68-6.32-3.94-9.1-5.69a24.25,24.25,0,0,0-7.87-3.6,12.77,12.77,0,0,0-5.8-.07,20.09,20.09,0,0,0-2,.67,8.25,8.25,0,0,1,2-.8,12.48,12.48,0,0,1,5.89,0,24,24,0,0,1,8,3.57c2.8,1.75,5.67,4,9.07,5.65a20,20,0,0,0,5.21,1.73,12.33,12.33,0,0,0,5.06-.15,20.21,20.21,0,0,0,4.29-1.74c1.3-.67,2.5-1.35,3.65-1.82a13,13,0,0,1,3.22-1,6.31,6.31,0,0,1,2.56.09,6.66,6.66,0,0,1,1.48.63A3.12,3.12,0,0,1,87.12,167.42Z" fill="#fafafa"/><path d="M83.31,253.22l1.88.94H96l2.18-1.79-7.87-13c-1,.42-5.21,1.09-6.58,1.57a11.24,11.24,0,0,1-3.68.62,20.08,20.08,0,0,1-4.17-.35l-.3-.09A1.43,1.43,0,0,0,75,241a1.41,1.41,0,0,0-1.44,2.08c.66,1,3.85,2.26,7.94,2.15h.19c3.58,0,.3,3-1.83,4.78a2.86,2.86,0,0,0-1,2.56,1.22,1.22,0,0,0,.48.88C80.22,254,83.31,253.22,83.31,253.22Z" fill="#ffbe9d"/><path d="M39.19,251.6a.6.6,0,0,1,0-.19v-.56c0-.52,0-1.24.07-2.15.08-1.9.19-4.59.33-7.92.28-6.7.68-15.92,1.09-26.1s.68-19.44.86-26.12c.08-3.32.13-6,.17-7.92,0-.91,0-1.63,0-2.16v-.55a.67.67,0,0,1,0-.2.67.67,0,0,1,0,.2v2.71c0,1.87,0,4.58,0,7.92-.1,6.69-.37,15.93-.77,26.13s-.83,19.43-1.19,26.11c-.19,3.31-.33,6-.44,7.9-.06.92-.11,1.64-.14,2.15l-.05.56A1.46,1.46,0,0,1,39.19,251.6Z" fill="#263238"/><path d="M68.6,252.89a1,1,0,0,1,0-.25c0-.19,0-.43-.06-.74l-.19-2.85c-.09-1.23-.19-2.74-.24-4.5s-.18-3.75-.2-6-.09-4.63-.06-7.23V227.3c0-1.41.06-2.81.1-4.27.17-5.84.47-12.26.94-19,1-13.47,2.15-25.63,2.92-34.43.38-4.4.68-8,.91-10.44.1-1.21.19-2.16.24-2.83,0-.31.05-.55.08-.74s0-.25,0-.25a1,1,0,0,1,0,.25l0,.75c-.05.67-.11,1.62-.19,2.84-.15,2.46-.43,6-.79,10.44-.71,8.78-1.87,20.94-2.82,34.43-.47,6.75-.78,13.14-1,19,0,1.46-.07,2.88-.11,4.27s0,2.7,0,4.05c-.05,2.6,0,5,0,7.23s.1,4.21.14,6,.11,3.27.17,4.5.1,2.17.14,2.84v.75A1,1,0,0,1,68.6,252.89Z" fill="#263238"/><path d="M73.58,186.31s.34-.19.76.17a1,1,0,0,1,.33.86,1,1,0,0,1-1.2.76.9.9,0,0,1-.61-1.37c.28-.48.68-.45.68-.41s-.3.12-.45.52a.79.79,0,0,0,0,.67.71.71,0,0,0,1,.13.69.69,0,0,0,.24-.34.79.79,0,0,0-.19-.62C73.89,186.33,73.58,186.37,73.58,186.31Z" fill="#263238"/><path d="M71.68,216.65s.35-.19.77.17a1,1,0,0,1,.32.85.94.94,0,0,1-.82.78,1,1,0,0,1-1-.47,1,1,0,0,1,0-.92c.27-.48.67-.44.67-.4a1.13,1.13,0,0,0-.44.51.74.74,0,0,0,0,.68.67.67,0,0,0,.93.22.7.7,0,0,0,.3-.43.71.71,0,0,0-.19-.62C72,216.65,71.68,216.7,71.68,216.65Z" fill="#263238"/><path d="M120.16,237.5a4.53,4.53,0,0,1-.9-.12,12.22,12.22,0,0,1-2.38-.76,13.22,13.22,0,0,1-6.08-5.44,21.29,21.29,0,0,1-1.69-4.21,12.18,12.18,0,0,0-1.49-3.31,6.26,6.26,0,0,0-1.72-1.72c-.49-.3-.8-.4-.79-.44a.86.86,0,0,1,.23.06,3.52,3.52,0,0,1,.63.27,5.55,5.55,0,0,1,1.85,1.69,11.78,11.78,0,0,1,1.6,3.38A22.08,22.08,0,0,0,111.1,231a13.63,13.63,0,0,0,5.89,5.41A22.25,22.25,0,0,0,120.16,237.5Z" fill="#fafafa"/></g><g id="character-2--inject-244"><path d="M178.5,254.14,167,220.79l5.31-32c1.55-8.63,2.42-16.21.1-20.56-6.2-11.58-13.68-12.62-23.9-15.27-2.11-.55-18.14-1.09-19.9-.68-13.92,1.56-22.83,8.94-27.71,21l-5.3,21.35L88.33,216.9a9.55,9.55,0,0,1-6.41,5.22l-28.06,9.59.24,5.49-.24,7.44,37.37-7c7.49-1.41,15.11-4.17,17.25-11.39l4-11.91c2,5,4.1,9.66,4.1,9.66l-2.7,30Z" fill="#2e4c5c"/><path d="M168.88,194.9,158.2,230.6a17.22,17.22,0,0,1-11.49,11.54L102.27,254l-5.89-15.34,40.17-14.93L146.41,188s2.28-20,20.35-19Z" fill="#2e4c5c"/><path d="M166.76,169h-.55c-.35,0-.88,0-1.58,0a17.34,17.34,0,0,0-5.94,1.21,15.69,15.69,0,0,0-3.83,2.15,18,18,0,0,0-3.65,3.74A27.13,27.13,0,0,0,146.52,188h0c-2.7,9.94-6.08,22.12-9.82,35.76v.08h-.07l-40.19,15,.1-.22,1,2.7c1.66,4.33,3.3,8.59,4.84,12.62l-.21-.11,38.18-10.13,4.31-1.15c.67-.19,1.41-.37,2.1-.57a17.72,17.72,0,0,0,2-.76,17,17,0,0,0,8.4-8.31,23.13,23.13,0,0,0,1.25-3.53c.72-2.36,1.39-4.61,2-6.76,2.6-8.6,4.69-15.54,6.13-20.27l1.67-5.47.44-1.41c.1-.32.16-.48.16-.48s0,.17-.13.48l-.41,1.43-1.61,5.49-6,20.32c-.63,2.16-1.31,4.41-2,6.76a25.22,25.22,0,0,1-1.26,3.57,17.83,17.83,0,0,1-2,3.38,17.4,17.4,0,0,1-6.47,5.12,18.47,18.47,0,0,1-2,.78c-.67.2-1.4.38-2.11.57l-4.3,1.15-38.18,10.19-.14,0-.06-.14c-1.55-4.06-3.19-8.3-4.84-12.62l-1-2.7-.06-.16.16-.06,40.17-14.92-.1.1c3.78-13.63,7.15-25.8,9.9-35.74h0A27.19,27.19,0,0,1,151,176.07a18.41,18.41,0,0,1,3.71-3.77,16.16,16.16,0,0,1,3.88-2.14,17.28,17.28,0,0,1,6-1.16,13.88,13.88,0,0,1,1.58,0Z" fill="#263238"/><path d="M138.76,215.69a2.46,2.46,0,0,1-.54,0,6.9,6.9,0,0,1-1.43-.17,9.33,9.33,0,0,1-4.22-2.23,10.1,10.1,0,0,1-2.74-3.9,5.25,5.25,0,0,1-.27-.79,4,4,0,0,1-.13-.6c-.06-.34-.08-.53-.05-.53a18,18,0,0,0,.67,1.82,11.17,11.17,0,0,0,2.75,3.74,10.11,10.11,0,0,0,4,2.24C138,215.62,138.76,215.61,138.76,215.69Z" fill="#263238"/><path d="M112.37,188.53a6.55,6.55,0,0,1-.37,1.05c-.27.68-.68,1.63-1.1,2.83a30.54,30.54,0,0,0-2.25,9.67,16.21,16.21,0,0,0,.74,5.4,19.5,19.5,0,0,0,1.83,4.06c.52.86,1.08,1.7,1.68,2.5a8.61,8.61,0,0,1,.68.91,2.35,2.35,0,0,1-.22-.2c-.13-.15-.31-.34-.54-.62a20.79,20.79,0,0,1-1.8-2.47,19.2,19.2,0,0,1-1.93-4.1,16.22,16.22,0,0,1-.77-5.49,29.06,29.06,0,0,1,2.34-9.75c.48-1.18.91-2.13,1.21-2.79A7.77,7.77,0,0,1,112.37,188.53Z" fill="#263238"/><path d="M140.45,228.47a13.26,13.26,0,0,0-1.63-2.77,13.09,13.09,0,0,0-2.49-2,2,2,0,0,1,.91.32,6.49,6.49,0,0,1,3,3.51A2,2,0,0,1,140.45,228.47Z" fill="#263238"/><path d="M97.2,240.78s-12.71,1.13-12.54,9.39l15.83-.8Z" fill="#b78876"/><path d="M117.69,102.4q-1.74,8.43-3.33,16.89c-1.35,7.15-2.56,14.63-.54,21.63,1.1,3.84,3.15,7.32,5.17,10.77,1.13,1.93,2.37,4,4.39,5,2.74,1.36,6.19.29,8.38-1.85s3.28-5.13,4.05-8.11c1.47-5.77,1.79-11.77,2-17.72s.36-12.13-1.35-17.9-5.46-11.23-11-13.52Z" fill="#263238"/><path d="M118.61,97.89a9.78,9.78,0,0,1,5.53-2.06c1.62-3.29,5.47-4.8,9.06-5.49,5.3-1,4.73-1.18,9.66,1S154.8,99.66,155.7,105a48.52,48.52,0,0,0,4.44,13.43c1.35,2.81,4,4.73,5.55,7.44a11.11,11.11,0,0,1,.64,9.73c-1.27,3-4,5.73-3.71,9a13.79,13.79,0,0,0,.83,5c2.56,6,1.35,13.93-4.15,17.38a14.2,14.2,0,0,1-17.71-2.7c-3.69-4.27-4.4-10.37-4.05-16s1.64-11.24,1.27-16.9Z" fill="#263238"/><path d="M124.92,254l-.08-1.95-28.65-3L83.63,212.92l-53.77-1.21L46.13,254Q86,254.28,124.92,254Z" fill="#263238"/><path d="M59.69,233.42a2.81,2.81,0,1,0,1-3.83h0A2.8,2.8,0,0,0,59.69,233.42Z" fill="#fff"/><path d="M138,166.93c6.44,0,12.24-5.49,12.05-13.66l1.17-46.63h0a3.9,3.9,0,0,0-3.49-4l-19.21-2a11.72,11.72,0,0,0-12.87,10.42c0,.16,0,.33,0,.49-.46,7.38-.74,16.42.14,21.92C117.47,144.57,126,146,126,146l-.21,7.74c-.33,8.24,5.84,13.2,12.21,13.2Z" fill="#b78876"/><path d="M119.88,117.59a1.42,1.42,0,0,0,1.35,1.43,1.36,1.36,0,0,0,1.46-1.24v0a1.41,1.41,0,0,0-1.35-1.43,1.35,1.35,0,0,0-1.46,1.24Z" fill="#263238"/><path d="M117.54,116.27c.18.19,1.26-.6,2.78-.6s2.65.77,2.81.58-.09-.42-.58-.77a3.92,3.92,0,0,0-2.25-.68,3.72,3.72,0,0,0-2.21.72C117.61,115.86,117.46,116.19,117.54,116.27Z" fill="#263238"/><path d="M134.64,117.87A1.4,1.4,0,0,0,136,119.3a1.34,1.34,0,0,0,1.46-1.23v0a1.41,1.41,0,0,0-1.35-1.43,1.35,1.35,0,0,0-1.46,1.23Z" fill="#263238"/><path d="M132.57,116.56c.17.19,1.25-.61,2.78-.61s2.64.77,2.81.58-.09-.41-.58-.77a4,4,0,0,0-2.25-.68,3.75,3.75,0,0,0-2.22.72C132.64,116.14,132.48,116.48,132.57,116.56Z" fill="#263238"/><path d="M127,127.9a10.42,10.42,0,0,0-2.48-.45c-.39,0-.76-.12-.83-.38a2.08,2.08,0,0,1,.26-1.17c.37-.94.75-1.93,1.16-3,1.6-4.24,2.76-7.72,2.59-7.78s-1.61,3.32-3.21,7.55c-.39,1-.76,2-1.11,3a2.31,2.31,0,0,0-.2,1.53,1,1,0,0,0,.64.57,2.57,2.57,0,0,0,.67.09A10,10,0,0,0,127,127.9Z" fill="#263238"/><path d="M126,146a28.23,28.23,0,0,0,14.83-4s-3.6,7.61-14.68,6.57Z" fill="#aa6550"/><path d="M127.67,131.58a2.7,2.7,0,0,1,2.47-1,2.48,2.48,0,0,1,1.73.93,1.58,1.58,0,0,1,.12,1.82,1.85,1.85,0,0,1-2,.51,5.84,5.84,0,0,1-2-1.17,1.68,1.68,0,0,1-.43-.45.5.5,0,0,1,0-.57Z" fill="#aa6550"/><path d="M131.52,129c-.25,0-.26,1.65-1.67,2.83s-3.19,1-3.2,1.23.39.31,1.14.33a4.08,4.08,0,0,0,2.7-.92,3.55,3.55,0,0,0,1.29-2.37C131.82,129.36,131.63,128.94,131.52,129Z" fill="#263238"/><path d="M131.88,113.88c.15.42,1.68.23,3.47.44s3.25.68,3.48.33c.11-.18-.15-.57-.73-1a5.92,5.92,0,0,0-2.58-.91,6,6,0,0,0-2.7.32C132.15,113.36,131.82,113.69,131.88,113.88Z" fill="#263238"/><path d="M118.1,111.85c.27.35,1.35,0,2.6,0s2.33.23,2.58-.13c.1-.18-.06-.53-.53-.85a3.73,3.73,0,0,0-4.17.13C118.13,111.32,118,111.68,118.1,111.85Z" fill="#263238"/><path d="M115.81,109.73c4.17-2.42,8.23-4.65,10.81-8.71,1.44,4.06,4.25,6.08,8,8.24a55.54,55.54,0,0,0,12,4.66c-2.09,2-2.36,5.3-1.88,8.17s1.58,5.64,1.76,8.54c.24,3.88-1.18,7.69-1.27,11.57-.12,5.33,2.23,10.37,4.53,15.17l10-5.83-1.44-26,.12-18.39-15.6-14.5L123.1,94.83Z" fill="#263238"/><path d="M164.62,148.45c.72-3.81,4.49-7.11,5.22-11.18,1.77-9.83-3.42-21.37-8.82-29.73s-8.46-17.83-22.17-18.61c-12.26-.55-20.61,5.34-24.7,13.86-2,4.26-2.52,9.08-2.92,13.8-.92,11-1.43,22.69,3.65,32.51a12.82,12.82,0,0,1,1.46,3.76c0,.11,0,.22,0,.33a1,1,0,0,1,0,.29h0a.81.81,0,0,1,0,.22v.16a.13.13,0,0,1,0,.06,2.64,2.64,0,0,1-.14.69,3.05,3.05,0,0,1-.13.32,2,2,0,0,1-.21.37,2.14,2.14,0,0,1-.13.19l0,.06,0,0c-1.34,1.56-4.18,1.53-5,3.42a2,2,0,0,0-.14.5c-.31,1.76,1.62,3.46,3,4.87a18,18,0,0,1,3.78,6.51c1.67,4.48,2.72,9.37,6.35,12.35a10.74,10.74,0,0,0,4.64,2.18,15.13,15.13,0,0,0,8-.53c4.2-1.42,7.73-4.29,11-7.32s6.3-6.27,10-8.73c3.37-2.24,9-3.68,10.37-7.35a5.75,5.75,0,0,0,.2-.71c.4-2-.74-4.14-1.79-6.27a1,1,0,0,1-.07-.15,14.72,14.72,0,0,1-1.36-3.46,6.13,6.13,0,0,1-.1-1.47c0-.09,0-.17,0-.26C164.55,148.92,164.58,148.68,164.62,148.45ZM115,116.19v0a22.53,22.53,0,0,1,.51-2.82s0,0,0,0a3.74,3.74,0,0,1,.12-.48s0,0,0-.06a23.77,23.77,0,0,1,1.27-3.67,24.27,24.27,0,0,1,1.7-3.28,14.59,14.59,0,0,1,2.83-3.27,12.44,12.44,0,0,1,1.42-1.09,0,0,0,0,0,0,0,14.7,14.7,0,0,1,5.55-2.3l.47-.09a11,11,0,0,1,7.17,2.39,22.41,22.41,0,0,1,4.78,4.85,15.4,15.4,0,0,1,2.6,6.62,59.25,59.25,0,0,1,.58,10.84c-.07,4.55,0,16,0,16s.39,8-1.42,12.63c-.63,1.63-1.53,2.86-2.81,3.19-.63.16-1.26.3-1.87.41a16.6,16.6,0,0,1-7.32-.27,15.19,15.19,0,0,1-4.81-2.37l-.75-.56c-.39-.33-.78-.67-1.16-1-4.53-4.32-7.12-10.38-8.16-16.56a63.67,63.67,0,0,1-.8-18.68c0-.11,0-.22,0-.33A.13.13,0,0,1,115,116.19Z" fill="#ff7c5c"/><g opacity="0.3"><path d="M166.76,156c-4.06,2.2-6.86,5.48-10.14,8.71s-7,6.36-11.49,7.52S135.22,172,133,168c12.68,2.16,27.41-8,31.76-20.09a7,7,0,0,0,0,3.21A42.33,42.33,0,0,0,166.76,156Z"/></g><g opacity="0.3"><path d="M116.32,152.67a12.43,12.43,0,0,0,6.13,7.74,8.08,8.08,0,0,1,1.94,1.15,1.87,1.87,0,0,1,.58,2,1.81,1.81,0,0,1-2.17.8,5.37,5.37,0,0,1-2-1.43c-2.21-2.14-4.49-4.3-5.11-7.3a3.55,3.55,0,0,0,.73-1.51A6.59,6.59,0,0,0,116.32,152.67Z"/></g><path d="M163.72,150.29a1.76,1.76,0,0,1-.19.39c-.14.25-.32.64-.61,1.1a38.23,38.23,0,0,1-2.62,3.8,40.93,40.93,0,0,1-4.63,5,28.29,28.29,0,0,1-6.9,4.78,33.23,33.23,0,0,1-4.09,1.47,31.44,31.44,0,0,1-4,.88,27.55,27.55,0,0,1-6.85.25,24.14,24.14,0,0,1-4.53-.86c-.53-.14-.92-.31-1.19-.4a2.09,2.09,0,0,1-.41-.17l1.64.43a24.66,24.66,0,0,0,4.52.75,27.82,27.82,0,0,0,6.76-.32,34.42,34.42,0,0,0,8-2.35,28.9,28.9,0,0,0,6.82-4.73,42,42,0,0,0,4.65-5q1.44-1.78,2.7-3.71c.3-.45.51-.82.67-1.06Z" fill="#263238"/><path d="M132.62,162.83a3.71,3.71,0,0,1-.81.21,13.1,13.1,0,0,1-2.26.2,13.85,13.85,0,0,1-12.29-7.37,12.14,12.14,0,0,1-.89-2.1,3.19,3.19,0,0,1-.19-.81,29.39,29.39,0,0,0,1.3,2.79A14.2,14.2,0,0,0,129.55,163C131.45,163,132.61,162.75,132.62,162.83Z" fill="#263238"/><path d="M130,179.57a1.59,1.59,0,0,1,.39-.1c.26-.06.67-.11,1.13-.24a34.78,34.78,0,0,0,4.11-1.14,46.73,46.73,0,0,0,12.34-6.6,102.42,102.42,0,0,0,10.65-9.2l3.06-3,.84-.8a2.61,2.61,0,0,1,.31-.27,1.89,1.89,0,0,1-.25.31l-.8.85c-.68.73-1.71,1.78-3,3.06a92.06,92.06,0,0,1-10.61,9.31,44.68,44.68,0,0,1-12.47,6.55,31.24,31.24,0,0,1-4.16,1c-.49.1-.89.14-1.15.17A1.38,1.38,0,0,1,130,179.57Z" fill="#263238"/></g><g id="character-3--inject-244"><path d="M246.72,211c0,.1,0,.2,0,.29l9.89,9.65h0l0,0Zm0,0c0,.1,0,.2,0,.29l9.89,9.65h0l0,0ZM353,193.75l-2.38-2.8-21.46-25.31,0,.05c-.94-.92-1.77-1.75-2.18-2.23-8-9.26-14.39-12.62-26.24-13h-1.23l-1.21,0-2.92.06-2.63.05-16.18.35-1.63,0c-3.16.26-9.08-.59-15.6,3.05l-.07,0-.47.29a.6.6,0,0,0-.15.09l0,0-.15.09-.68.44a30.27,30.27,0,0,0-7.36,7.13l-.88,1.11c-16.59,20.82-29.84,38.55-29.84,47.45,0,.25,0,.49,0,.73a11.12,11.12,0,0,0,1.85,4.55,1.74,1.74,0,0,0,.11.18l0,.05.43.63h0a45.16,45.16,0,0,0,3.36,4.34l.15.18c1.12,1.3,2.37,2.65,3.71,4l.29.3c2.11,2.15,4.42,4.36,6.82,6.55l.33.31q1.8,1.65,3.65,3.27h0l1.15,1,.87.75,3.26,2.79c7.62,6.41,14.49,11.67,16.66,13.31l.71.54h9.19s0,0,0,0l49.08,0v-.49l-.06-2q0-.33,0-.75l0-1.19,25.14-16.32c7-4.76,11.47-9.05,13.64-14.52V204.6A37.45,37.45,0,0,0,353,193.75ZM256.35,197l1.84-2.16h0c.53-.62,1-1.2,1.52-1.75.23-.27.46-.54.69-.79L263,217.12l0,.62-.39,8.45v.24l0,.33v.09L259,223.27l0,0-2.35-2.36-9.9-9.91-.5-.5a1.2,1.2,0,0,1,.08-.35h0a7.43,7.43,0,0,1,.66-1.24,140.35,140.35,0,0,1,9.37-11.9Zm63.81,28.84-.44-10.35-1-22.45,13.71,14.18,5.29,5.48ZM246.72,211c0,.1,0,.2,0,.29l9.89,9.65h0l0,0Zm0,0c0,.1,0,.2,0,.29l9.89,9.65h0l0,0Z" fill="#2e4c5c"/><rect x="243.85" y="216.27" width="52.68" height="36.05" rx="2.31" transform="translate(-75.84 143.96) rotate(-26.3)" fill="#e0e0e0"/><path d="M270,231.65a2.67,2.67,0,1,1-.88,3.67h0A2.67,2.67,0,0,1,270,231.65Z" fill="#fff"/><path d="M318.41,169.66a.81.81,0,0,1,0,.22v3c0,2.12,0,5.15.07,8.88,0,7.5.33,17.86.91,29.29s1.17,21.78,1.49,29.27c.16,3.75.27,6.76.33,8.88,0,1,0,1.84.06,2.42v.84a.81.81,0,0,1,0-.22,3.79,3.79,0,0,0,0-.62c0-.58-.08-1.36-.13-2.42-.1-2.11-.26-5.14-.44-8.86-.41-7.52-1-17.86-1.6-29.28s-.83-21.8-.81-29.3c0-3.73,0-6.75.05-8.88,0-1,0-1.84,0-2.42v-.62A1.43,1.43,0,0,1,318.41,169.66Z" fill="#263238"/><path d="M257.73,155c3.11-2.26,6.72-1.58,9.84.68a13.52,13.52,0,0,1,5.16,9.91,24.81,24.81,0,0,1-2.13,11.23c-2.35,5.69-5.81,10.3-11,16.17l-13.35,17.53L272,235.65,261.35,252.5l-21.59-17.37c-7.37-6.23-13.64-12.59-18.24-19.17Z" fill="#2e4c5c"/><path d="M221.51,216l.16.2.45.61c.4.53,1,1.35,1.8,2.34a93.37,93.37,0,0,0,7.43,8.23q2.53,2.53,5.76,5.41c2.15,1.92,4.57,3.82,7.14,5.88l17.16,13.77-.23,0,10.67-16.86v.22l-13.3-13-12.48-12.16-.1-.1.08-.12c4.73-6.19,9.21-12.07,13.37-17.53h0a88.58,88.58,0,0,0,7.06-8.87,40,40,0,0,0,4.64-9.12,23.09,23.09,0,0,0,1.52-9,14.75,14.75,0,0,0-2.28-7.26,11.78,11.78,0,0,0-4.58-4.11,8.52,8.52,0,0,0-4.45-1,6.75,6.75,0,0,0-2.74.81c-.58.31-.85.52-.86.5l.2-.15a5.16,5.16,0,0,1,.63-.4,6.75,6.75,0,0,1,2.76-.86,8.41,8.41,0,0,1,4.53,1,11.76,11.76,0,0,1,4.67,4.12,15.09,15.09,0,0,1,2.35,7.37,23.65,23.65,0,0,1-1.43,9,40.92,40.92,0,0,1-4.65,9.19,86.65,86.65,0,0,1-7.07,8.91h0c-4.16,5.47-8.64,11.35-13.34,17.57v-.23l12.48,12.16,13.29,13,.1.1-.07.11c-3.76,5.94-7.37,11.62-10.69,16.85l-.1.15-.14-.11-17.13-13.82c-2.56-2.07-5-4-7.12-5.91s-4.06-3.72-5.75-5.4a89.75,89.75,0,0,1-7.4-8.32c-.79-1-1.35-1.83-1.76-2.37l-.43-.62C221.56,216,221.51,216,221.51,216Z" fill="#263238"/><path d="M347,212.19a10.55,10.55,0,0,1-1.35-.42,9.39,9.39,0,0,0-6.58.35,11.57,11.57,0,0,1-1.3.56,3.92,3.92,0,0,1,1.19-.79,8.31,8.31,0,0,1,6.76-.35A4.07,4.07,0,0,1,347,212.19Z" fill="#263238"/><path d="M277.31,251.71,272.62,254a6.58,6.58,0,0,1-7.12-.8l-2.93-2.38,8.11-12.75c.95.41,4.87,1,6.22,1.44a10.74,10.74,0,0,0,3.64.61,19.69,19.69,0,0,0,4.13-.34l.29-.09a1.34,1.34,0,0,1,.59-.1c1.15-.11,2.07,1.11,1.42,2s-3.81,2.23-7.85,2.12h-.19c-3.55,0-.29,3,1.81,4.73a2.77,2.77,0,0,1,1,2.53,1.18,1.18,0,0,1-.47.88C280.36,252.5,277.31,251.71,277.31,251.71Z" fill="#a36853"/><path d="M288.16,162.19c-6.22,0-11.81-5.3-11.75-13.2l-1.12-44.94h.13a3.75,3.75,0,0,1,3.37-3.81l18.53-2a11.27,11.27,0,0,1,12.4,10c0,.16,0,.32,0,.48.45,7.12.72,15.83-.12,21.14-1.72,10.7-9.9,12.06-9.9,12.06l.19,7.44c.32,7.94-5.63,12.73-11.77,12.73Z" fill="#a36853"/><path d="M305.6,114.61a1.34,1.34,0,0,1-1.32,1.35,1.31,1.31,0,0,1-1.41-1.19v0a1.37,1.37,0,0,1,2.73-.12Z" fill="#263238"/><path d="M307.85,113.34c-.17.18-1.21-.59-2.71-.58s-2.55.74-2.7.56.09-.4.57-.75a3.71,3.71,0,0,1,2.17-.67,3.61,3.61,0,0,1,2.13.67C307.78,112.94,307.94,113.26,307.85,113.34Z" fill="#263238"/><path d="M291.38,114.88a1.35,1.35,0,0,1-1.32,1.39h0a1.36,1.36,0,0,1-1.42-1.24,1.34,1.34,0,0,1,1.32-1.38h0A1.35,1.35,0,0,1,291.38,114.88Z" fill="#263238"/><path d="M293.36,113.62c-.17.18-1.21-.59-2.7-.59s-2.55.74-2.7.56.09-.4.57-.74a3.72,3.72,0,0,1,2.16-.68,3.63,3.63,0,0,1,2.14.68C293.3,113.21,293.45,113.54,293.36,113.62Z" fill="#263238"/><path d="M298.72,124.55a9.68,9.68,0,0,1,2.39-.43c.38,0,.73-.12.8-.37a2,2,0,0,0-.25-1.12l-1.12-2.86c-1.55-4.06-2.66-7.44-2.5-7.5s1.55,3.19,3.09,7.27c.38,1,.73,2,1.07,2.89a2.17,2.17,0,0,1,.2,1.48,1,1,0,0,1-.62.55,3.4,3.4,0,0,1-.64.09A9.8,9.8,0,0,1,298.72,124.55Z" fill="#263238"/><path d="M299.74,142a27.16,27.16,0,0,1-14.31-3.81s3.7,8,14.39,7Z" fill="#8f5039"/><path d="M294,111c-.15.4-1.62.21-3.35.42s-3.13.67-3.38.32c-.11-.18.14-.55.68-.94a5.87,5.87,0,0,1,5.11-.56C293.77,110.56,294.09,110.85,294,111Z" fill="#263238"/><path d="M307.31,109.08c-.26.34-1.28,0-2.49,0s-2.26.22-2.5-.13c-.1-.17.07-.5.51-.82a3.46,3.46,0,0,1,2-.55,3.41,3.41,0,0,1,2,.68C307.28,108.57,307.43,108.92,307.31,109.08Z" fill="#263238"/><path d="M275.41,114.26c1.82-.32,3.27.24,3.78,2,.77,2.67.25,4,.37,5.82l2.71-.81c-.68-6.15.86-10.71.19-16.89,3.75,1.21,8.92-1.11,10.52-5a10.47,10.47,0,0,0,11.15.78,4.29,4.29,0,0,0,4.59,2.15c2-.57,4.17-3.46,4.76-5.51,1.06-3.68.54-9-2.45-11.36s-9-1.83-11.29,1.22c-.92,1.2-1,3.43-2.51,3.73-1.32.27-2.51-.68-3.72-1.3a7.28,7.28,0,0,0-9.86,4.69c-3.13-1.87-6.93-3.09-10.44-2.09s-6.3,4.9-5.11,8.35c.5,1.45,1.61,2.7,1.73,4.21.24,2.94-3.29,5.6-2.16,8.32.63,1.53,2.47,2.21,3.31,3.63.93,1.6.35,3.61.43,5.46.12,3.08,1.7,7.64,4.65,8.52Z" fill="#263238"/><path d="M275.69,114.23a2.53,2.53,0,0,0-2,1.63,5.64,5.64,0,0,0-.55,2.62,5.85,5.85,0,0,0,1.29,3.92,3.36,3.36,0,0,0,3.81,1Z" fill="#a36853"/><path d="M277.53,121.05s-.4.18-1,0a2.2,2.2,0,0,1-.92-.67,2.6,2.6,0,0,1-.5-1.36,2.65,2.65,0,0,1,.28-1.35,2.5,2.5,0,0,1,.76-.86c.55-.36,1-.34,1-.3a6.36,6.36,0,0,0-.83.51,2.33,2.33,0,0,0-.83,2,2.12,2.12,0,0,0,1.16,1.8A8,8,0,0,0,277.53,121.05Z" fill="#8f5039"/><path d="M294,129.77a4,4,0,0,0,4.86-.93,26.5,26.5,0,0,1-5.65-4.16S291.32,127.87,294,129.77Z" fill="#fafafa"/><path d="M298.38,132.89a5.84,5.84,0,0,0-1.71-.4,6,6,0,0,0-1.72.38,1,1,0,0,1,.41-.39,2.63,2.63,0,0,1,2.63,0C298.29,132.67,298.43,132.86,298.38,132.89Z" fill="#aa6550"/></g><g id="character-4--inject-244"><path d="M296.91,176.16a124.46,124.46,0,0,0,7.77-13.11c2.79-5.32,2.32-5.59,1.65-5.83-1.8-.64-5.27,9.17-5.73,6.6s5.61-11.49,3.71-12c-2.49-.78-5.93,9.57-6.28,10.42s-1.59.33-1.22-.42c.52-1.07,5.69-12.55,3.25-13.33-1.35-.43-1.84,2.1-1.84,2.1s-4.05,11.12-5.19,10.71,1-7,1.9-9.19.22-3.47-1-3.09c-.87.25-3.74,6.85-4.57,9s-3,8.18-4.29,4.29c0-.06,0-.11-.08-.18-1.18-3.86-3.38-6.44-4.52-6.75a1.39,1.39,0,0,0-1.5,2,1.26,1.26,0,0,0,.3.51c.06.07.12.17.18.24a20.32,20.32,0,0,1,1.65,3.8,11.08,11.08,0,0,1,.59,3.65c0,1.44.67,5.63.62,6.66Z" fill="#ffbe9d"/><path d="M281.59,170.7l-16.34,32.44S256,176.4,251,165.76c-1.9-4-5.71-6.87-9.37-8.73V157l-.76-.31a38.64,38.64,0,0,0-8.22-2.84c-17.25-4.94-33.49-3.22-52.3,3.37,0,0-9.76,2.63-14.5,15.36-4.26,11.49-9,29.06-9.85,32.17-5.86,19.72,2.5,30.7,14.15,29.35,4.8-.76,8.88-4.73,10.68-6.27L187,222l.13,4.48-6.91,27.68L251,254l-12.77-32.77,2.84-15,4.85,11.54a20.23,20.23,0,0,0,37.08.48l16.55-41.67Z" fill="#ff7c5c"/><path d="M196.36,211.14a8.18,8.18,0,0,1-.63.91c-.43.57-1.07,1.39-1.89,2.37-1.63,2-4,4.6-6.7,7.39s-5.32,5.19-7.26,6.85c-1,.84-1.77,1.49-2.34,1.92a6.16,6.16,0,0,1-.91.68,7.31,7.31,0,0,1,.82-.76c.54-.46,1.32-1.14,2.27-2,1.89-1.71,4.45-4.13,7.17-6.92s5.09-5.4,6.75-7.31c.85-1,1.51-1.75,2-2.29A7.29,7.29,0,0,1,196.36,211.14Z" fill="#263238"/><path d="M238.47,220.19a1.2,1.2,0,0,1,0-.38c.05-.29.11-.64.18-1.07l.74-3.93c.62-3.32,1.47-7.9,2.15-13,.17-1.28.32-2.52.46-3.73a19.13,19.13,0,0,0,.19-3.46,33.88,33.88,0,0,0-.87-5.84c-.36-1.65-.67-3-.88-3.9-.1-.46-.15-.83-.18-1.07a2.54,2.54,0,0,1,0-.39,1.61,1.61,0,0,1,.08.38c0,.24.13.6.25,1.06.22.91.59,2.22,1,3.87a33.26,33.26,0,0,1,.95,5.87,21.79,21.79,0,0,1-.17,3.52c-.13,1.21-.29,2.46-.46,3.73-.67,5.12-1.57,9.7-2.25,13-.35,1.62-.64,2.94-.85,3.92-.1.42-.18.77-.24,1.06A2.53,2.53,0,0,1,238.47,220.19Z" fill="#263238"/><path d="M263.81,211.07a46.93,46.93,0,0,1,1.46-7.88,22.42,22.42,0,0,1-.57,4A24.51,24.51,0,0,1,263.81,211.07Z" fill="#263238"/><path d="M266.3,212a30.58,30.58,0,0,1-.67-4.56,29.51,29.51,0,0,1-.36-4.6,30.39,30.39,0,0,1,.67,4.56A29.51,29.51,0,0,1,266.3,212Z" fill="#263238"/><path d="M214.09,254c-.09,0-.17-10.87-.17-24.26s.08-24.27.17-24.27.18,10.86.18,24.27S214.19,254,214.09,254Z" fill="#263238"/><g opacity="0.2"><path d="M240.65,185.38c3.32,6.36,6.2,12.69,6.47,19.86.2,5.57-2,10.22.27,15.3-.11.09-2.08-4.29-2.95-6.34-1.79-4.23-3.38-8-3.38-8s1.23-9.55,1.35-11.18S240.65,185.38,240.65,185.38Z"/></g><g opacity="0.2"><path d="M158.52,217.69c0,3.19-2-7.34-.12-9.92,1.3-1.82,3.53-2.71,5.69-3.24s4.43-.89,6.35-2c2.48-1.47,4.05-4.05,5.79-6.32s4.05-12,6.92-12.21v14.19a192,192,0,0,1-21.37,12A10,10,0,0,0,158.52,217.69Z"/></g><g opacity="0.2"><path d="M187,222c4.63-2.6,8-6.08,13.24-7,5-.89,10.21,0,15.31-.35q-.42-3.85-.85-7.73l-14.57-.16Z"/></g><path d="M183.15,183.81c.09,0,.18,3.16.18,7.05s-.09,7-.18,7a69.07,69.07,0,0,1-.18-7A69.07,69.07,0,0,1,183.15,183.81Z" fill="#263238"/><path d="M158.51,217.62a3.15,3.15,0,0,1-.08-1.26,9,9,0,0,1,2.37-5.49,3.24,3.24,0,0,1,1-.81,16.18,16.18,0,0,0-2.29,3.49A15.38,15.38,0,0,0,158.51,217.62Z" fill="#263238"/><path d="M161.42,210.27a5.57,5.57,0,0,0,1.06-.38c.68-.27,1.65-.68,2.84-1.24a98.11,98.11,0,0,0,9-4.73c3.42-2,6.4-4,8.49-5.55,1.05-.77,1.89-1.4,2.45-1.86a6.55,6.55,0,0,0,.85-.73,7.37,7.37,0,0,0-1,.62l-2.5,1.76c-2.13,1.47-5.12,3.44-8.53,5.44s-6.6,3.65-8.94,4.79l-2.77,1.35A8,8,0,0,0,161.42,210.27Z" fill="#263238"/><path d="M251.57,126.51a7,7,0,0,0-1.34-3.18v-.06c-1.16-1.52-3-2.7-3.38-4.56-.47-2.49,2-4.83,1.57-7.33-.29-1.71-1.87-2.91-3.48-3.57s-3.37-1-4.85-1.87a9.81,9.81,0,0,1-3.87-4.77,15.9,15.9,0,0,1-.57-1.64,18.27,18.27,0,0,0-.82-3.51c-.06-.3-.12-.59-.17-.89l.07.67a7,7,0,0,0-.88-1.58c-1.17-1.57-3.45-2.47-5.13-1.56a.24.24,0,0,0-.11.06l0,0-.12.07.11-.08,0,0,.1-.07.56-.37a15.61,15.61,0,0,0-12.05-9.46,14.14,14.14,0,0,0-3-.1c-3.65-.19-8.91.87-11.13,2.28-2.84,1.8-5.75,4.27-7.17,7.31-.77,1.65-1.29,3.55-2.71,4.64-1.93,1.46-4.64.89-7,1.16a11.06,11.06,0,0,0-8.79,7.27,14.48,14.48,0,0,0,1.11,11.6,3.09,3.09,0,0,1,.58,2.49,3,3,0,0,1-1.52,1.35,8.16,8.16,0,0,0-3.67,3.85,4.51,4.51,0,0,0,.94,5,4.14,4.14,0,0,0,4.13.59,8.76,8.76,0,0,0-.63,3.19,6.68,6.68,0,0,0,3.31,5.94,4.93,4.93,0,0,0,6.32-1.51,8.31,8.31,0,0,0,12.84,7c.13-.08.25-.18.39-.28l.07,0h0a8.7,8.7,0,0,1,.9-.59s0,0,.06,0a2.66,2.66,0,0,1,1.77-.4c1.18.22,1.85,1.36,2.66,2.18,2.17,2.25,5.86,2.51,8.7,1.23a11.57,11.57,0,0,0,3.38-2.38,16.26,16.26,0,0,0,2.06-2.53,18.68,18.68,0,0,0,1-1.65,5,5,0,0,0,2.46,1.93,4,4,0,0,0,.92.23h0a5,5,0,0,0,5.45-3.07h0l.12-.34.11.13a8.4,8.4,0,0,0,14.94-4.9A6.91,6.91,0,0,0,251.57,126.51Zm-69.31-1.15v0l.06,0Z" fill="#263238"/><path d="M225.13,142.32s8.65-1.43,10.44-12.73c.9-5.61.61-14.82.14-22.34a11.93,11.93,0,0,0-12.65-11.16l-.5,0L203,98.21a4,4,0,0,0-3.55,4.06l2.06,49c-1.43.31-4.66,1-6.25,1.47,0,0,15.15,33.86,18.86,33.47s18.54-32.44,18.54-32.44a76.29,76.29,0,0,0-7.86-1.92A92.56,92.56,0,0,1,225.13,142.32Z" fill="#ffbe9d"/><path d="M231.33,113.4a1.44,1.44,0,0,1-1.39,1.46,1.36,1.36,0,0,1-1.49-1.2v-.1a1.43,1.43,0,0,1,1.39-1.46,1.39,1.39,0,0,1,1.49,1.27Z" fill="#263238"/><path d="M233.72,112.06c-.19.19-1.28-.62-2.84-.61s-2.7.78-2.87.59.1-.42.6-.79a4,4,0,0,1,2.3-.69,3.83,3.83,0,0,1,2.26.73C233.62,111.64,233.8,112,233.72,112.06Z" fill="#263238"/><path d="M216.3,113.69a1.45,1.45,0,0,1-1.4,1.46,1.35,1.35,0,0,1-1.49-1.2s0-.07,0-.1a1.45,1.45,0,0,1,1.4-1.46,1.39,1.39,0,0,1,1.49,1.27Z" fill="#263238"/><path d="M218.4,112.35c-.18.19-1.28-.62-2.83-.61s-2.71.78-2.88.59.1-.42.61-.79a4.05,4.05,0,0,1,2.29-.71,3.9,3.9,0,0,1,2.26.73C218.32,111.91,218.48,112.27,218.4,112.35Z" fill="#263238"/><path d="M224.05,123.91a10,10,0,0,1,2.54-.45c.39,0,.77-.12.84-.39a2.05,2.05,0,0,0-.27-1.19c-.38-1-.76-2-1.17-3-1.64-4.32-2.82-7.86-2.65-7.93s1.64,3.38,3.27,7.7l1.13,3a2.29,2.29,0,0,1,.21,1.56,1,1,0,0,1-.68.59,3.84,3.84,0,0,1-.68.09A9.82,9.82,0,0,1,224.05,123.91Z" fill="#263238"/><path d="M225.13,142.32A28.73,28.73,0,0,1,210,138.26s3.67,7.75,15,6.7Z" fill="#ed9482"/><path d="M219.67,126.35a3,3,0,0,1,1.14-.49,1,1,0,0,1,1.06.5,3.2,3.2,0,0,0,.16.39c.23.31.71.19,1.08.3a1.14,1.14,0,0,1,.6,1.49h0a2.31,2.31,0,0,1-1.35,1.16,4.89,4.89,0,0,1-2.42.33,2,2,0,0,1-1.5-.74,1.8,1.8,0,0,1,.12-1.94,5.14,5.14,0,0,1,1.55-1.35Z" fill="#ed9482"/><path d="M219.47,125c.25,0,.26,1.68,1.7,2.87s3.25,1,3.26,1.25-.4.33-1.16.36a4.27,4.27,0,0,1-2.7-.95,3.72,3.72,0,0,1-1.36-2.41C219.17,125.42,219.36,125,219.47,125Z" fill="#263238"/><path d="M219.1,109.63c-.16.42-1.71.22-3.53.44s-3.32.72-3.55.34c-.11-.18.15-.58.74-1a6.19,6.19,0,0,1,5.41-.59C218.83,109.1,219.17,109.43,219.1,109.63Z" fill="#263238"/><path d="M233.14,108.53c-.27.36-1.35,0-2.64,0s-2.38.24-2.63-.14c-.11-.17.06-.53.54-.86a3.82,3.82,0,0,1,4.25.13C233.12,108,233.26,108.37,233.14,108.53Z" fill="#263238"/><path d="M229.11,94.49A15.31,15.31,0,0,1,211,106.31l-.39-.08A14.58,14.58,0,0,1,202,117.65a31,31,0,0,1,3.65,18.59c-.34,2.7-1.13,5.58-3.18,7.43-3.14,2.81-8.42,2.13-11.43-.8a12.27,12.27,0,0,1-3.1-11.18,18,18,0,0,1,6.41-10,7.16,7.16,0,0,1-3.69-12.27,16.43,16.43,0,0,0,2.71-2.48,13.83,13.83,0,0,0,1.17-3.24c1-2.85,3.54-4.81,6-6.62,2-1.53,4.3-3.13,6.86-3.12,1.35,0,2.7.47,4,.29,1.86-.25,3.31-1.66,4.84-2.7a10.59,10.59,0,0,1,7.44-2,6.66,6.66,0,0,1,5.55,5Z" fill="#263238"/><path d="M228.1,95.6a6.77,6.77,0,0,0,2.31,6,20.16,20.16,0,0,0,5.68,3.38,25.83,25.83,0,0,0-2.93-6.08,8.61,8.61,0,0,0-5.48-3.71Z" fill="#263238"/><path d="M178.45,121.63a1.43,1.43,0,0,1-.06-.71,2.69,2.69,0,0,1,1-1.74,4.47,4.47,0,0,1,3.08-.84c1.26,0,2.66.42,4.21.33a5.34,5.34,0,0,0,4.11-2.55,5.41,5.41,0,0,0,.77-2.66c.07-1,0-2,0-3a5.51,5.51,0,0,1,1-3.09,6.54,6.54,0,0,1,2.7-2c2.13-1,4.56-1,6.88-1.41a10.08,10.08,0,0,0,3.29-1.15,8.83,8.83,0,0,0,2.44-2.32c1.31-1.81,2.2-3.83,3.41-5.55A11.67,11.67,0,0,1,227.83,92a8.67,8.67,0,0,1,2,1.88l-.13-.12-.37-.37a12.55,12.55,0,0,0-1.56-1.27,11.77,11.77,0,0,0-7-2.09,11.57,11.57,0,0,0-9.21,5.08c-1.19,1.69-2.07,3.71-3.38,5.57a9.25,9.25,0,0,1-2.54,2.41,10.28,10.28,0,0,1-3.38,1.2c-2.38.43-4.73.45-6.82,1.35a6.07,6.07,0,0,0-2.56,1.92,5.11,5.11,0,0,0-.94,2.9c-.06,1,0,2,0,3a5.88,5.88,0,0,1-.83,2.79,5.59,5.59,0,0,1-4.34,2.63,42.41,42.41,0,0,1-4.25-.37,4.33,4.33,0,0,0-3,.75,2.69,2.69,0,0,0-1,1.65A2.9,2.9,0,0,0,178.45,121.63Z" fill="#fafafa"/><polygon points="195.23 173.79 195.95 191.8 197.76 209.03 216.9 208.21 215.53 174.19 195.23 173.79" fill="#263238"/><polygon points="192.42 173.73 193.14 191.8 194.95 209.03 214.09 208.21 212.71 174.13 192.42 173.73" fill="#2e4c5c"/><path d="M190.62,211.14a126.31,126.31,0,0,0,15.16-1.62c5.93-1,5.87-1.49,5.66-2.17-.56-1.83-10.5,1.27-8.71-.64s12.55-2.36,11.87-4.24c-.87-2.46-11.22,1-12.11,1.2s-1.22-1.07-.4-1.23c1.18-.23,13.47-2.95,12.63-5.37-.46-1.35-2.78-.21-2.78-.21s-11.34,3.38-11.69,2.25,6.23-3.38,8.5-4,2.92-1.9,1.86-2.7c-.73-.53-7.73,1.11-10,1.75s-8.34,2.49-6-.89c0-.05.06-.1.1-.16,2.38-3.26,3.13-6.56,2.7-7.67a1.39,1.39,0,0,0-2.51,0,1.36,1.36,0,0,0-.23.54,1.14,1.14,0,0,1-.09.3,20.19,20.19,0,0,1-2,3.59,11,11,0,0,1-2.57,2.65c-1.16.85-4.06,3.94-5,4.49Z" fill="#ffbe9d"/><polygon points="186.24 196.03 196.36 211.14 179.68 228.15 180.24 200.56 186.24 196.03" fill="#ff7c5c"/></g></g></g></svg>