<svg xmlns="http://www.w3.org/2000/svg" viewBox="0 0 40.96 46.21"><title>history</title><g id="Layer_2" data-name="Layer 2"><g id="Layer_1-2" data-name="Layer 1"><path d="M34.08,46.21a1.12,1.12,0,0,1-1-.56L25.77,33A16.91,16.91,0,0,1,6.42,26.43L1.7,29.18A1.13,1.13,0,0,1,0,27.91L3.51,14.8A1.14,1.14,0,0,1,4.89,14L18,17.46a1.12,1.12,0,0,1,.83.94,1.1,1.1,0,0,1-.55,1.13l-6,3.48a10.08,10.08,0,0,0,5.57,3.77A10.2,10.2,0,0,0,29.6,21.47a1.12,1.12,0,0,1,1.3-.6L35.31,22a1.15,1.15,0,0,1,.73.6,1.18,1.18,0,0,1,0,.94,17.06,17.06,0,0,1-4.21,5.91l7.32,12.63a1.13,1.13,0,0,1-.41,1.54l-4.12,2.4A1.16,1.16,0,0,1,34.08,46.21ZM26.27,30.53a1.1,1.1,0,0,1,1,.56l7.25,12.44,2.17-1.26L29.44,29.81a1.12,1.12,0,0,1,.26-1.44,14.63,14.63,0,0,0,3.72-4.49l-2.24-.59A12.5,12.5,0,0,1,17.3,29,12.37,12.37,0,0,1,9.73,23.2a1.14,1.14,0,0,1,.41-1.55L14.79,19,5.4,16.47,2.92,25.85l3.31-1.92a1.11,1.11,0,0,1,1.54.41,14.69,14.69,0,0,0,18.08,6.27A1,1,0,0,1,26.27,30.53ZM36.36,19.94a.92.92,0,0,1-.29,0L23,16.43a1.12,1.12,0,0,1-.83-.94,1.14,1.14,0,0,1,.55-1.13l6-3.47a10.08,10.08,0,0,0-5.57-3.78h0a10.21,10.21,0,0,0-11.72,5.32,1.13,1.13,0,0,1-1.3.59L5.64,11.85a1.12,1.12,0,0,1-.72-.59,1.11,1.11,0,0,1,0-.94A17,17,0,0,1,24.82.56a16.84,16.84,0,0,1,9.72,6.9l4.72-2.74A1.13,1.13,0,0,1,40.92,6L37.45,19.1a1.15,1.15,0,0,1-.53.69A1.12,1.12,0,0,1,36.36,19.94ZM26.17,15l9.38,2.48L38,8.05,34.73,10a1.14,1.14,0,0,1-1.55-.41A14.68,14.68,0,0,0,7.54,10l2.24.59a12.44,12.44,0,0,1,21.45.09,1.14,1.14,0,0,1-.41,1.54Z" fill="#ff7c5c"/></g></g></svg>