<svg xmlns="http://www.w3.org/2000/svg" viewBox="0 0 45.27 43.34"><title>member</title><g id="Layer_2" data-name="Layer 2"><g id="Layer_1-2" data-name="Layer 1"><path d="M19,21.6A10.8,10.8,0,1,0,8.24,10.8,10.81,10.81,0,0,0,19,21.6Zm0-19a8.19,8.19,0,1,1-8.19,8.19A8.2,8.2,0,0,1,19,2.61Z" fill="#ff7c5c"/><path d="M19,23.43c-9.78,0-19,6.21-19,12.78V42a1.31,1.31,0,0,0,1.3,1.31H36.79A1.31,1.31,0,0,0,38.09,42V36.21C38.09,29.64,28.83,23.43,19,23.43Zm16.44,17.3H2.61V36.21C2.61,31.08,10.75,26,19,26s16.44,5,16.44,10.17Z" fill="#ff7c5c"/><path d="M44,6.25H40.28V2.56a1.31,1.31,0,1,0-2.61,0V6.25H34a1.3,1.3,0,1,0,0,2.6h3.69v3.69a1.31,1.31,0,1,0,2.61,0V8.85H44a1.3,1.3,0,1,0,0-2.6Z" fill="#ff7c5c"/></g></g></svg>