<svg xmlns="http://www.w3.org/2000/svg" viewBox="0 0 35.51 30.46"><title>stars</title><g id="Layer_2" data-name="Layer 2"><g id="Layer_1-2" data-name="Layer 1"><path d="M10.7,9.12l.85,2.07a14.63,14.63,0,0,0,8,7.92l2.25.9-2.16.88A14.66,14.66,0,0,0,11.57,29L11,30.46l-.91-1.91a14.52,14.52,0,0,0-8.16-7.39L0,20.45l2.56-1.24a14.61,14.61,0,0,0,7.1-7.53Z" fill="#ff7c5c"/><path d="M28.48,7.87,29,9.18a9.26,9.26,0,0,0,5.06,5l1.42.57-1.36.56A9.22,9.22,0,0,0,29,20.44l-.38.95-.58-1.21a9.18,9.18,0,0,0-5.17-4.68l-1.21-.45,1.62-.79a9.25,9.25,0,0,0,4.51-4.77Z" fill="#ff7c5c"/><path d="M19.07,0l.37.88a6.26,6.26,0,0,0,3.41,3.39l1,.39L22.89,5a6.26,6.26,0,0,0-3.44,3.45l-.26.64-.39-.81a6.16,6.16,0,0,0-3.49-3.16l-.81-.31,1.09-.53a6.24,6.24,0,0,0,3-3.22Z" fill="#ff7c5c"/></g></g></svg>