<svg xmlns="http://www.w3.org/2000/svg" viewBox="0 0 46.42 44.59"><title>survey</title><g id="Layer_2" data-name="Layer 2"><g id="Layer_1-2" data-name="Layer 1"><path d="M38.05,9.81a1.37,1.37,0,0,1-1.39,1.39H26.5a1.39,1.39,0,0,1,0-2.78H36.66A1.37,1.37,0,0,1,38.05,9.81Z" fill="#ff7c5c"/><path d="M38.05,18a1.37,1.37,0,0,1-1.39,1.39H26.5a1.39,1.39,0,0,1,0-2.78H36.66a1.45,1.45,0,0,1,1,.44A1.25,1.25,0,0,1,38.05,18Z" fill="#ff7c5c"/><path d="M38.05,26.21a1.37,1.37,0,0,1-1.39,1.39H26.5a1.39,1.39,0,0,1,0-2.78H36.66A1.37,1.37,0,0,1,38.05,26.21Z" fill="#ff7c5c"/><path d="M19.63,17.17a8.5,8.5,0,0,1-2,1.9l-.22.16a2,2,0,0,0-1.12,1.9.83.83,0,0,1-.8.73H14a.89.89,0,0,1-.56-.24,1.06,1.06,0,0,1-.24-.64,4.84,4.84,0,0,1,2.39-4.28,4.58,4.58,0,0,0,1.52-1.36,2.43,2.43,0,0,0,.17-2.49,2.89,2.89,0,0,0-2.79-1.5A3,3,0,0,0,11.3,14a.73.73,0,0,1-.75.62H9.07a.79.79,0,0,1-.8-.9,6.1,6.1,0,0,1,6.24-5.4,5.94,5.94,0,0,1,5.54,3.21A5.45,5.45,0,0,1,19.63,17.17Z" fill="#ff7c5c"/><path d="M16.65,25.91A1.89,1.89,0,1,1,14.76,24,1.89,1.89,0,0,1,16.65,25.91Z" fill="#ff7c5c"/><path d="M44.3,2.2A7.34,7.34,0,0,0,39,0H7.43A7.44,7.44,0,0,0,0,7.44v21.2a7.43,7.43,0,0,0,7.43,7.43h9.05l3.4,6.5a3.8,3.8,0,0,0,6.71,0l3.4-6.5h9a7.43,7.43,0,0,0,7.43-7.43V7.44A7.29,7.29,0,0,0,44.3,2.2Zm-.61,26.44A4.66,4.66,0,0,1,39,33.29H29.18A1.39,1.39,0,0,0,28,34l-3.81,7.23a1,1,0,0,1-1.81,0L18.51,34a1.44,1.44,0,0,0-1.22-.73H7.43a4.66,4.66,0,0,1-4.65-4.65V7.44A4.66,4.66,0,0,1,7.43,2.78H39a4.66,4.66,0,0,1,4.66,4.66Z" fill="#ff7c5c"/></g></g></svg>