<svg xmlns="http://www.w3.org/2000/svg" viewBox="0 0 257.3 76.03"><title>Welcome</title><g id="Layer_2" data-name="Layer 2"><g id="Layer_1-2" data-name="Layer 1"><path d="M78.23,1.06c-2.11,2.11,1.64.19,1.64,2.11,0,13.53-24.29,47.52-34.27,62.3,2-15.55,11.61-26.59,11.61-28.7,0-1.83-3.93-4.8-7.2-4.8-1.44,0-4.41,3.74-7.1,9.59-4.22,7.78-7.39,14.31-18.82,26.79C26.69,48.48,52,12.67,52,10.46c0-1.82-6-4.89-7.2-4.89C21.41,5.57,0,21.5,0,34.08a8.32,8.32,0,0,0,6.05,8.35,13.82,13.82,0,0,1-.67-4.32c0-8.06,14.3-22,33.59-25C30.62,26.4,16.61,54.33,16.61,68.16c0,5.66,4.22,7.87,6.91,7.87h.29a1,1,0,0,0,.48-.1c.57-.1,1-.19,1.15-.48,3-1.63,7.58-6.91,12.09-13.25-.09,1.44-.09,2.79-.09,4.23,0,6.43,6.62,9.6,9.4,9.6,2,0,3.17-2.5,3.17-2.5C57.12,60,87.55,20.93,87.55,7.3,87.55,4.13,81.79-2.59,78.23,1.06Z" fill="#2e4c5c"/><path d="M254.87,47.32c-4.22,3.46-11.52,10.85-18.81,9.51-4.13-.77-2.21-6.34-1-8.35a4.85,4.85,0,0,0,4.32,2.59c7.1,0,13.05-9.22,13.05-13,0-4.9-3.16-6.91-6.91-6.91-5.63,0-16.18,7.74-19.67,17-2.55,2.08-8.16,6.45-9.51,7.49,2.78-8.93,11.52-19.11,11.52-20.45,0-1.92-3.56-4.32-6.92-4.32-3,0-13.24,10.08-21,19.29,5.67-11,9.22-12.57,9.22-13.82,0-2.78-4.13-5.47-7.59-5.47-3,.1-12.38,9.89-19.77,19,5.57-10.75,9-12.29,9-13.54,0-2.78-4.13-5.47-7.58-5.47-1.22,0-4.94,4.71-7.89,11.29A30.44,30.44,0,0,1,171,47a25.45,25.45,0,0,0,1.25-7.49c0-4.32-3-8.54-7.68-8.54-7.1,0-12.86,5.08-14.3,12.19a9,9,0,0,0-1.73-.1c-1.58,0-3.57,2.8-4.66,6.29-6,4.4-19.24,13.29-19.24,5.52,0-7.2,9.12-17,13.82-17,3.65,0,1,5-3.94,5-1.34,0-1.34,2.49,1.92,2.49,3.84,0,7.87-2.88,7.87-8.44,0-4-3.26-6.15-7.1-6.15-5.35,0-15.32,7.11-19.36,15.89-1.67,1.5-9.75,8.25-10.11,7.44,8.54-25.63,20-36.67,20-38.49s-4.61-4.32-6-4.32c-2.56,0-16.46,21.58-21.07,38.07-4.3,3.67-10.33,8.54-16.37,7.43-4.13-.77-2.21-6.34-1-8.35a4.85,4.85,0,0,0,4.32,2.59c7.1,0,13-9.22,13-13,0-4.9-3.17-6.91-6.91-6.91C87,31.2,73,42.52,73,54.14c0,5.86,3.46,10.27,8.73,10.27,6.44,0,13.11-4.64,17.72-9.2a26.53,26.53,0,0,0-.24,3.35c0,2.3.77,5.85,3.55,5.85s10.48-8,13.37-10.88c0,.2,0,.41,0,.61,0,5.86,3.55,10.46,8.93,10.46,6.84,0,13.42-4.61,18.14-8.71.82,6.43,6.94,8.52,10,8.52,4.8,0,9.88-3.74,13.63-9.12a22.53,22.53,0,0,0,5.52-3.8,34,34,0,0,0-.82,7.16c0,2.4.77,5.76,3.55,5.76a1.44,1.44,0,0,0,1.64-1.15c.86-2.3,5-10.94,17-21a42.26,42.26,0,0,0-3.84,16.41c0,2.4.76,5.76,3.55,5.76,1,0,1.25-.29,1.53-1,.87-1.73,5.48-10.75,18-21.12C210.71,47.13,209,52.6,209,57c0,5.95,2,7.39,3,7.39,2,0,9-6.14,12.8-9.6.25,5.52,3.63,9.6,8.71,9.6,9.21,0,18.91-9.5,22.36-14.68C256.7,48.67,259.1,43.87,254.87,47.32Zm-8.16-9.11c2.5,0-4.7,7.19-10.27,8.06C239.42,41.76,243.93,38.21,246.71,38.21Zm-151.77,0c2.5,0-4.7,7.19-10.27,8.06C87.65,41.76,92.16,38.21,94.94,38.21Zm56.64,20c-.86-.86-.38-3.17.48-5.57a9.72,9.72,0,0,0,5.28,3.08C155.33,58.46,153.21,59.8,151.58,58.17Zm8.74-7.39c-2.5-.48-4.71-1.82-4.71-5.18,0-5.67,4.23-10.37,7.78-10.37C165.88,35.23,163.77,44,160.32,50.78Z" fill="#2e4c5c"/></g></g></svg>